<svg xmlns="http://www.w3.org/2000/svg"><symbol id="alert-error" viewBox="0 0 19 19"><g fill="none" stroke="currentColor" stroke-miterlimit="10"><circle cx="9.5" cy="9.5" r="6"></circle><path d="M11.5 7.5l-2 2 2 2m-4-4l2 2-2 2" stroke-linecap="square"></path></g></symbol><symbol id="alert-info" viewBox="0 0 19 19"><circle cx="9.5" cy="9.5" r="6" fill="none" stroke="currentColor" stroke-linecap="square" stroke-miterlimit="10"></circle><circle fill="currentColor" cx="9.5" cy="6.5" r=".65"></circle><path d="M9.5 8.5v4" fill="none" stroke="currentColor" stroke-linecap="square" stroke-miterlimit="10"></path></symbol><symbol id="alert-success" viewBox="0 0 19 19"><g fill="none" stroke="currentColor" stroke-linecap="square" stroke-miterlimit="10"><path d="M6.5 9.93l1.71 1.71 4.29-4.28"></path><circle cx="9.5" cy="9.5" r="6"></circle></g></symbol><symbol id="alert-warning" viewBox="0 0 19 19"><path fill="none" stroke="currentColor" stroke-miterlimit="10" d="M9.5 3.5l-7 12h14l-7-12z"></path><circle fill="currentColor" cx="9.5" cy="13.53" r=".65"></circle><path stroke-linecap="square" fill="none" stroke="currentColor" stroke-miterlimit="10" d="M9.5 11.53v-4"></path></symbol><symbol id="arrow-back" viewBox="0 0 16 24"><g fill="none" stroke="currentColor" stroke-miterlimit="10" stroke-width="2"><path d="M15 18v-6H2"></path><path d="M6.5 7l-5 5 5 5"></path></g></symbol><symbol id="arrow-down" viewBox="0 0 16 24"><path fill="none" stroke="currentColor" stroke-miterlimit="10" stroke-width="2" d="M1.5 9L8 15.5 14.5 9"></path></symbol><symbol id="arrow-left-long" viewBox="0 0 24 24"><path fill="none" stroke="currentColor" stroke-miterlimit="10" stroke-width="2" d="M6.4 17l-5-5 5-5M2 12h22"></path></symbol><symbol id="arrow-left" viewBox="0 0 10 24"><path fill="none" stroke="currentColor" stroke-miterlimit="10" stroke-width="2" d="M8 5.5L1.5 12 8 18.5"></path></symbol><symbol id="arrow-right-long" viewBox="0 0 24 24"><path d="M17.59 7l5 5-5 5M0 12h22" fill="none" stroke="currentColor" stroke-miterlimit="10" stroke-width="2"></path></symbol><symbol id="arrow-right" viewBox="0 0 10 24"><path fill="none" stroke="currentColor" stroke-miterlimit="10" stroke-width="2" d="M2 5.5L8.5 12 2 18.5"></path></symbol><symbol id="arrow-up" viewBox="0 0 16 24"><path fill="none" stroke="currentColor" stroke-miterlimit="10" stroke-width="2" d="M1.5 14.5L8 8l6.5 6.5"></path></symbol><symbol id="bag-active" viewBox="0 0 16 24"><g stroke="currentColor" stroke-miterlimit="10" stroke-width="2"><path fill="currentColor" d="M1 7h14v14H1z"></path><path fill="none" d="M11 10V3H5v7"></path></g></symbol><symbol id="bag-inactive" viewBox="0 0 16 24"><g fill="none" stroke="currentColor" stroke-miterlimit="10" stroke-width="2"><path d="M1 7h14v14H1z"></path><path d="M11 10V3H5v7"></path></g></symbol><symbol id="broken-image" viewBox="0 0 17 19"><g fill="none" stroke="currentColor" stroke-miterlimit="10"><circle cx="12.5" cy="8.5" r="2"></circle><path d="M.5 14.5l4-7 3.75 7"></path><path stroke-linecap="square" d="M.5 4.5h16v10H.5zm15-2l-14 14"></path><path d="M7.5 14.4l2-2.9 2 3"></path></g></symbol><symbol id="calendar-active" viewBox="0 0 20 24"><g stroke="currentColor" stroke-miterlimit="10"><path fill="currentColor" stroke-width="2.011" d="M1 10h18v11H1z"></path><path fill="none" stroke-width="2" d="M1 4h18v6H1zm14-3v6M5 7V1"></path></g></symbol><symbol id="calendar-inactive" viewBox="0 0 20 24"><g fill="none" stroke="currentColor" stroke-miterlimit="10"><path stroke-width="2.011" d="M1 10h18v11H1z"></path><path stroke-width="2" d="M1 4h18v6H1zm14-3v6M5 7V1"></path></g></symbol><symbol id="chat" viewBox="0 0 22 24"><path d="M21 19V3H1v16h5v3l4-3h11zM4 7h14M4 11h14M4 15h14" fill="none" stroke="currentColor" stroke-miterlimit="10" stroke-width="2"></path></symbol><symbol id="checkbox-checkmark" viewBox="0 0 16 24"><path fill="none" stroke="currentColor" stroke-miterlimit="10" stroke-width="2" d="M1 13l4 4L15 7"></path></symbol><symbol id="checkmark-full" viewBox="0 0 24 24"><g stroke="none" stroke-width="1" fill="none" fill-rule="evenodd"><circle fill="currentColor" cx="12" cy="12" r="12"></circle><polygon fill="#fff" points="9 15.5857864 18.2928932 6.29289322 19.7071068 7.70710678 9 18.4142136 4.29289322 13.7071068 5.70710678 12.2928932"></polygon></g></symbol><symbol id="checkmark" viewBox="0 0 19 19"><path fill="none" stroke="currentColor" stroke-linecap="square" stroke-miterlimit="10" d="M2.5 10.5l4 4 10-10"></path></symbol><symbol id="close" viewBox="0 0 18 24"><path d="M17 4l-8 8 8 8M1 4l8 8-8 8" fill="none" stroke="currentColor" stroke-miterlimit="10" stroke-width="2"></path></symbol><symbol id="contact-email" viewBox="0 0 15 19"><g fill="none" stroke="currentColor" stroke-miterlimit="10"><path stroke-linecap="square" d="M.5 5.5h14v8H.5z"></path><path d="M10.5 9.5l4 4m-14-8l7 6 7-6m-10 4l-4 4"></path></g></symbol><symbol id="contact-phone" viewBox="0 0 9 19"><g fill="none" stroke="currentColor" stroke-miterlimit="10"><path d="M.5 2.5h8v14h-8zm0 11h8m-8-9h8"></path><circle cx="4.5" cy="14.5" r="1"></circle></g></symbol><symbol id="cross-small" viewBox="0 0 14 24"><g fill="none" stroke="currentColor" stroke-miterlimit="10" stroke-width="2"><path d="M13 6l-6 6 6 6M1 6l6 6-6 6"></path></g></symbol><symbol id="customization" viewBox="0 0 19 19"><path d="M 12.503906,0.71679688 2.4238281,12.21875 4.2089844,13.785156 14.291016,2.28125 Z M 1.6503906,13.109375 1.1875,15.4375 3.4316406,14.677734 Z" fill="currentColor"></path><path d="m 8.5975,10.5925 -4.56,5.213125 c 1.3889668,1.271211 3.1683614,2.033211 5.046875,2.16125 z" fill="#3175de"></path><path d="M 17.943125,9.131875 10.604375,9.61875 16.31625,14.63 c 1.169096,-1.572208 1.74528,-3.50684 1.626875,-5.4625 z" fill="#f9b900"></path><path d="M 9.785,10.485625 10.28375,17.955 c 1.980929,-0.137915 3.847046,-0.980406 5.260625,-2.375 z" fill="#00ac37"></path><path d="M 17.8125,7.95625 C 17.429316,6.1360587 16.446708,4.4969833 15.021875,3.30125 l -4.53625,5.13 z" fill="#ea2c35"></path></symbol><symbol id="dropdown" viewBox="0 0 16 24"><path fill="none" stroke="currentColor" stroke-miterlimit="10" stroke-width="2" d="M1.5 9L8 15.5 14.5 9"></path></symbol><symbol id="edit" viewBox="0 0 22 24"><path d="M7 20L20 7l-4.02-4L3 16l-1 5 5-1zm-3-4l3 3m7-13l3 3" fill="none" stroke="currentColor" stroke-miterlimit="10" stroke-width="2"></path></symbol><symbol id="expand" viewBox="0 0 20 24"><path d="M12 10l7-7M1 21l7-7m-7 0v7h7m11-11V3h-7" fill="none" stroke="currentColor" stroke-miterlimit="10" stroke-width="2"></path></symbol><symbol id="facebook" viewBox="0 0 24 24"><g id="Icons/Social/Facebook" stroke="none" stroke-width="1" fill="none" fill-rule="evenodd"><g id="Facebook"><polygon id="Fill-1" points="0 24 24 24 24 0 0 0"></polygon></g><path d="M23,12.0672574 C23,5.9549754 18.0751367,1 12,1 C5.92486328,1 1,5.9549754 1,12.0672574 C1,17.5912454 5.02254102,22.1698044 10.28125,23 L10.28125,15.2663864 L7.48828125,15.2663864 L7.48828125,12.0672574 L10.28125,12.0672574 L10.28125,9.62900223 C10.28125,6.85527085 11.9234727,5.32314741 14.4361133,5.32314741 C15.6396035,5.32314741 16.8984375,5.53930478 16.8984375,5.53930478 L16.8984375,8.26288765 L15.5113633,8.26288765 C14.1448926,8.26288765 13.71875,9.11599594 13.71875,9.99121713 L13.71875,12.0672574 L16.7695312,12.0672574 L16.2818359,15.2663864 L13.71875,15.2663864 L13.71875,23 C18.977459,22.1698044 23,17.5912454 23,12.0672574" id="Fill-1" fill="#1877F2"></path></g></symbol><symbol id="forbidden" viewBox="0 0 13 19"><g fill="none" stroke="currentColor" stroke-miterlimit="10"><circle cx="6.5" cy="9.5" r="6"></circle><path stroke-linecap="square" d="M2.5 5.5l8 8"></path></g></symbol><symbol id="google" viewBox="0 0 24 24"><!-- Generator: Sketch 53.2 (72643) - https://sketchapp.com --><title>Icons/Social/Google</title><desc>Created with Sketch.</desc><g id="Icons/Social/Google" stroke="none" stroke-width="1" fill="none" fill-rule="evenodd"><g id="Group" transform="translate(1.000000, 1.000000)"><path d="M21.56,11.25 C21.56,10.47 21.49,9.72 21.36,9 L11,9 L11,13.255 L16.92,13.255 C16.665,14.63 15.89,15.795 14.725,16.575 L14.725,19.335 L18.28,19.335 C20.36,17.42 21.56,14.6 21.56,11.25 L21.56,11.25 Z" id="Shape" fill="#4285F4"></path><path d="M11,22 C13.97,22 16.46,21.015 18.28,19.335 L14.725,16.575 C13.74,17.235 12.48,17.625 11,17.625 C8.135,17.625 5.71,15.69 4.845,13.09 L1.17,13.09 L1.17,15.94 C2.98,19.535 6.7,22 11,22 L11,22 Z" id="Shape" fill="#34A853"></path><path d="M4.845,13.09 C4.625,12.43 4.5,11.725 4.5,11 C4.5,10.275 4.625,9.57 4.845,8.91 L4.845,6.06 L1.17,6.06 C0.425,7.545 0,9.225 0,11 C0,12.775 0.425,14.455 1.17,15.94 L4.845,13.09 L4.845,13.09 Z" id="Shape" fill="#FBBC05"></path><path d="M11,4.375 C12.615,4.375 14.065,4.93 15.205,6.02 L18.36,2.865 C16.455,1.09 13.965,0 11,0 C6.7,0 2.98,2.465 1.17,6.06 L4.845,8.91 C5.71,6.31 8.135,4.375 11,4.375 L11,4.375 Z" id="Shape" fill="#EA4335"></path><polygon id="Shape" points="0 0 22 0 22 22 0 22"></polygon></g></g></symbol><symbol id="hamburger" viewBox="0 0 24 24"><path d="M0 6h24M0 12h24M0 18h24" fill="none" stroke="currentColor" stroke-miterlimit="10" stroke-width="2"></path></symbol><symbol id="hide-active" viewBox="0 0 24 24"><g fill="none" stroke="currentColor" stroke-miterlimit="10" stroke-width="2"><circle cx="12" cy="10.95" r="3.81"></circle><path d="M12 17.35A12.31 12.31 0 0 1 2 11.9a12.31 12.31 0 0 1 10-5.45 12.31 12.31 0 0 1 10 5.45 12.31 12.31 0 0 1-10 5.45zM22 2L2 22"></path></g></symbol><symbol id="hide-inactive" viewBox="0 0 24 24"><g fill="none" stroke="currentColor" stroke-miterlimit="10" stroke-width="2"><circle cx="12" cy="10.95" r="3.81"></circle><path d="M12 17.35A12.31 12.31 0 0 1 2 11.9a12.31 12.31 0 0 1 10-5.45 12.31 12.31 0 0 1 10 5.45 12.31 12.31 0 0 1-10 5.45z"></path></g></symbol><symbol id="instagram" viewBox="0 0 24 24"><path d="M12 20.7c-2.69 0-3 0-4.06-.06a6.1 6.1 0 0 1-2-.38 3.51 3.51 0 0 1-1.34-.86 3.51 3.51 0 0 1-.86-1.32 6.1 6.1 0 0 1-.38-2c0-1-.06-1.37-.06-4.06s0-3 .06-4.06a6.1 6.1 0 0 1 .38-2A3.51 3.51 0 0 1 4.6 4.6a3.51 3.51 0 0 1 1.32-.86 6.1 6.1 0 0 1 2-.38c1 0 1.37-.06 4.06-.06s3 0 4.06.06a6.1 6.1 0 0 1 2 .38 3.51 3.51 0 0 1 1.32.86 3.51 3.51 0 0 1 .86 1.32 6.1 6.1 0 0 1 .38 2c.05 1 .06 1.37.06 4.06s0 3-.06 4.06a6.1 6.1 0 0 1-.38 2 3.82 3.82 0 0 1-2.18 2.18 6.1 6.1 0 0 1-2 .38c-1.04.09-1.35.1-4.04.1z" fill="transparent"></path><path d="M12 3.8c2.67 0 3 0 4 .06a5.61 5.61 0 0 1 1.86.34 3.33 3.33 0 0 1 1.9 1.9 5.61 5.61 0 0 1 .38 1.9c.05 1 .06 1.37.06 4s0 3-.06 4a5.61 5.61 0 0 1-.34 1.86 3.33 3.33 0 0 1-1.9 1.9 5.61 5.61 0 0 1-1.86.34c-1 .05-1.37.06-4 .06s-3 0-4-.06a5.61 5.61 0 0 1-1.94-.3 3.33 3.33 0 0 1-1.9-1.9 5.61 5.61 0 0 1-.34-1.9c0-1-.06-1.37-.06-4s0-3 .06-4a5.61 5.61 0 0 1 .34-1.9 3.33 3.33 0 0 1 1.9-1.9A5.61 5.61 0 0 1 8 3.86c1 0 1.37-.06 4-.06M12 2c-2.72 0-3.06 0-4.12.06a7.59 7.59 0 0 0-2.43.46 4.85 4.85 0 0 0-1.77 1.16 4.85 4.85 0 0 0-1.16 1.77 7.59 7.59 0 0 0-.46 2.43C2 8.94 2 9.28 2 12s0 3.06.06 4.12a7.59 7.59 0 0 0 .46 2.43 4.85 4.85 0 0 0 1.16 1.77 4.85 4.85 0 0 0 1.77 1.16 7.59 7.59 0 0 0 2.43.46C8.94 22 9.28 22 12 22s3.06 0 4.12-.06a7.59 7.59 0 0 0 2.43-.46 5.19 5.19 0 0 0 2.93-2.93 7.59 7.59 0 0 0 .46-2.43c0-1.06.06-1.4.06-4.12s0-3.06-.06-4.12a7.59 7.59 0 0 0-.46-2.43 4.85 4.85 0 0 0-1.16-1.77 4.85 4.85 0 0 0-1.77-1.16 7.59 7.59 0 0 0-2.43-.46C15.06 2 14.72 2 12 2z" fill="currentColor"></path><path d="M12 6.86A5.14 5.14 0 1 0 17.14 12 5.14 5.14 0 0 0 12 6.86zm0 8.47A3.33 3.33 0 1 1 15.33 12 3.33 3.33 0 0 1 12 15.33z" fill="currentColor"></path><circle cx="17.34" cy="6.66" r="1.2" fill="currentColor"></circle></symbol><symbol id="locate-target" viewBox="0 0 22 24"><g fill="none" stroke="currentColor" stroke-miterlimit="10" stroke-width="2"><circle cx="11" cy="12" r="8"></circle><path d="M11 1v6m0 10v6m11-11h-6M6 12H0"></path></g></symbol><symbol id="lock" viewBox="0 0 24 24"><g stroke="none" stroke-width="1" fill="none" fill-rule="evenodd"><g transform="translate(3.000000, 2.000000)" stroke="currentColor" stroke-width="2"><polygon points="0 19 18 19 18 7 0 7"></polygon><path d="M10.773,11.7725 C10.773,12.7525 9.978,13.5455 9,13.5455 C8.02,13.5455 7.227,12.7525 7.227,11.7725 C7.227,10.7925 8.02,10.0005 9,10.0005 C9.978,10.0005 10.773,10.7925 10.773,11.7725 Z"></path><path d="M8.9996,16 L8.9996,13.546" stroke-linecap="square"></path><path d="M14.9996,6.9004 L14.9996,6.0004 C14.9996,2.6864 12.3136,0.0004 8.9996,0.0004 C5.6866,0.0004 2.9996,2.6864 2.9996,6.0004 L2.9996,7.0004"></path></g></g></symbol><symbol id="locked" viewBox="0 0 19 19"><g fill="none" stroke="currentColor" stroke-miterlimit="10"><path d="M13.5 7.5v-1a4 4 0 0 0-8 0v1m-2 0h12v8h-12z"></path><circle cx="9.5" cy="10.68" r="1.18"></circle><path stroke-linecap="square" d="M9.5 13.5v-1.64"></path></g></symbol><symbol id="logo" viewBox="0 0 24 24"><path d="M15.72 13.61h4.67l-6-10.47-3.5 2 4.87 8.45zm-5.17 1v-1h3.68l-3.92-6.79-3.51 2 2.75 4.78v1zm-7.83-2.19l.67 1.19h4.67l-1.85-3.2-3.49 2zm11.51 1.19v1.69a2 2 0 0 0-1.23-.37 2.08 2.08 0 0 0 0 4.16 2.12 2.12 0 0 0 1.19-.37V19h1v-5.39zm-6.17 0v1.69a2 2 0 0 0-1.19-.37 2.08 2.08 0 0 0 0 4.16 2.1 2.1 0 0 0 1.19-.37V19h1v-5.39zm12.22 4.08c0 .81.72 1.39 1.88 1.39.94 0 1.72-.41 1.72-1.32 0-.63-.35-1-1.17-1.15l-.64-.13c-.41-.08-.69-.16-.69-.4s.27-.39.62-.39.71.25.72.55h1c-.05-.78-.68-1.31-1.7-1.31s-1.67.57-1.67 1.32c0 .92.74 1.06 1.38 1.18l.53.1c.38.07.54.18.54.4s-.19.39-.64.39c-.65 0-.86-.34-.87-.63zM18.91 19h1v-4h-1v.32a2 2 0 0 0-1.19-.37 2.08 2.08 0 0 0 0 4.16 2.12 2.12 0 0 0 1.19-.37V19zM3.39 19h1v-4h-1v.32a2 2 0 0 0-1.19-.37 2.08 2.08 0 1 0 0 4.16 2.12 2.12 0 0 0 1.19-.37V19zm7.16 0v-4h-1v4zm-9.46-2a1.15 1.15 0 1 1 1.15 1.15A1.15 1.15 0 0 1 1.09 17zm4.68 0a1.15 1.15 0 1 1 1.15 1.15A1.14 1.14 0 0 1 5.77 17zm10.84 0a1.15 1.15 0 1 1 1.15 1.15A1.15 1.15 0 0 1 16.61 17zm-4.67 0a1.15 1.15 0 1 1 1.15 1.15A1.14 1.14 0 0 1 11.94 17z"></path></symbol><symbol id="minus" viewBox="0 0 20 2"><g stroke="none" stroke-width="1" fill="none" fill-rule="evenodd"><g transform="translate(-2.000000, -11.000000)"><polygon points="0 24 24 24 24 0 0 0"></polygon><g transform="translate(2.000000, 12.000000)" stroke="currentColor" stroke-width="2"><path d="M20,0 L0,0"></path></g></g></g></symbol><symbol id="notification-active" viewBox="0 0 24 24"><g stroke="currentColor" stroke-miterlimit="10" stroke-width="2"><path d="M15 18a3 3 0 0 1-6 0m-7 0h20" fill="none"></path><path fill="currentColor" d="M19 10a7 7 0 0 0-14 0v8h14z"></path><path d="M5.21 2a10.46 10.46 0 0 0-3.52 6m20.62 0a10.46 10.46 0 0 0-3.52-6" fill="none"></path></g></symbol><symbol id="notification-inactive" viewBox="0 0 24 24"><path d="M15 18a3 3 0 0 1-6 0m-7 0h20m-3-8a7 7 0 0 0-14 0v8h14zM5.21 2a10.46 10.46 0 0 0-3.52 6m20.62 0a10.46 10.46 0 0 0-3.52-6" fill="none" stroke="currentColor" stroke-miterlimit="10" stroke-width="2"></path></symbol><symbol id="personalisation-flag" viewBox="0 0 15 19"><g fill="none" stroke="currentColor" stroke-miterlimit="10"><path d="M14.5 13.5H.5v-10h14z"></path><path stroke-linecap="square" d="M7.5 5.5v6m3-3h-6m-4-6v15"></path></g></symbol><symbol id="personalization" viewBox="0 0 19 19"><path d="m1.1875 15.438 0.475-2.375 1.7812 1.5438zm11.044-14.488-9.8562 11.281 1.7812 1.5438 9.8562-11.162z" fill="currentColor"></path><path d="m12.943 6.1758l-3.4434 9.2617h1.9004l0.59375-1.6621h3.3242l0.59375 1.6621h1.9004l-3.4434-9.2617h-1.4258zm0.71289 2.7305l1.1875 3.3242h-2.375l1.1875-3.3242zm-12.469 7.7188v1.1875h16.625v-1.1875h-16.625z" fill="#0286cd"></path></symbol><symbol id="pin-small" viewBox="0 0 9 19"><g fill="none" stroke="currentColor" stroke-miterlimit="10"><circle cx="4.5" cy="7.5" r="4" stroke-linecap="square"></circle><path d="M1.17 9.71L4.5 15.5l3.33-5.79"></path></g></symbol><symbol id="pin" viewBox="0 0 14 24"><g fill="none" stroke="currentColor" stroke-miterlimit="10" stroke-width="2"><circle cx="7" cy="9" r="6" stroke-linecap="square"></circle><path d="M2 12.32L7 21l5-8.68"></path></g></symbol><symbol id="pinterest" viewBox="0 0 24 24"><circle cx="12" cy="12" r="11" fill="#fff"></circle><path d="M12 1a11 11 0 0 0-4 21.25 10.83 10.83 0 0 1 0-3.16c.2-.86 1.29-5.47 1.29-5.47A4 4 0 0 1 9 12c0-1.53.89-2.67 2-2.67a1.37 1.37 0 0 1 1.39 1.54 22.13 22.13 0 0 1-.91 3.67 1.6 1.6 0 0 0 1.63 2c2 0 3.46-2.07 3.46-5A4.34 4.34 0 0 0 12 7a4.76 4.76 0 0 0-5 4.78 4.25 4.25 0 0 0 .82 2.51.31.31 0 0 1 .07.31c-.08.35-.27 1.1-.3 1.25s-.16.24-.37.15C5.83 15.36 5 13.35 5 11.74c0-3.47 2.5-6.66 7.24-6.66A6.45 6.45 0 0 1 19 11.43c0 3.79-2.39 6.84-5.7 6.84A2.93 2.93 0 0 1 10.8 17s-.56 2.1-.69 2.62a12.37 12.37 0 0 1-1.37 2.88A11 11 0 1 0 12 1z"></path></symbol><symbol id="play-shadow" viewBox="0 0 24 24"><path fill="#fff" d="M7 7.32l9.92 5.56L7 18.48V7.32M5 3.91v18l16-9-16-9z"></path><path fill="currentColor" d="M6 6.32l9.92 5.56L6 17.48V6.32M4 2.91v18l16-9-16-9z"></path></symbol><symbol id="play" viewBox="0 0 24 24"><path fill="currentColor" d="M6 6.32l9.92 5.56L6 17.48V6.32M4 2.91v18l16-9-16-9z"></path></symbol><symbol id="plus" viewBox="0 0 20 24"><path d="M10 2v20m10-10H0" fill="none" stroke="currentColor" stroke-miterlimit="10" stroke-width="2"></path></symbol><symbol id="profile" viewBox="0 0 20 24"><g fill="none" stroke="currentColor" stroke-miterlimit="10" stroke-width="2"><path d="M19 20.5L15.63 16H4.38L1 20.5"></path><circle cx="10" cy="8.5" r="4.5"></circle></g></symbol><symbol id="rating-active" viewBox="0 0 19 19"><path d="m9.5 14.26 5.86 4.26-2.23-6.91 5.87-4.26h-7.25l-2.25-6.87-2.25 6.87h-7.25l5.87 4.26-2.24 6.91z" fill="currentColor"></path></symbol><symbol id="rating-inactive" viewBox="0 0 19 19"><path d="m15.01 8.6443h-4.2038l-1.3058-3.9937-1.3058 3.9937h-4.2038l3.4071 2.4744-1.3041 4.0074 3.407-2.4744 3.3975 2.4744-1.2947-4.008zm3.9904-1.2962-5.8743 4.2662 2.2308 6.9057-5.8571-4.2657-5.8735 4.2657 2.2474-6.9063-5.8734-4.2656h7.2543l2.2457-6.8682 2.2457 6.8682z" fill="currentColor"></path></symbol><symbol id="reload" viewBox="0 0 24 24"><g id="icon_reload_black" stroke="none" stroke-width="1" fill="none" fill-rule="evenodd"><path d="M7.8275,6.34316 C9.2752,4.89536 11.2752,3.99996 13.4843,3.99996 C17.9026,3.99996 21.4843,7.58176 21.4843,11.99996 C21.4843,16.41826 17.9026,19.99996 13.4843,19.99996 C9.0661,19.99996 5.4843,16.41826 5.4843,11.99996 L5.4843,10.99996" id="Stroke-1" stroke="currentColor" stroke-width="2" stroke-linecap="square"></path><polyline id="Stroke-3" stroke="currentColor" stroke-width="2" points="2.00709 13.42724 5.48429 9.95004 8.96159 13.42724"></polyline></g></symbol><symbol id="runtastic" viewBox="0 0 24 24"><path d="m11.971 2a4.28 4.28 0 0 0 -3.2402 1.3398l-3.5 3.6602 1.5586 1.6699 3.4512-3.5801a2.25 2.25 0 0 1 3.2988 0l0.11133 0.10938 1.5801-1.5996-0.23047-0.20898a4.28 4.28 0 0 0 -3.0293 -1.3906zm4.9297 3.3301l-1.6699 1.5508 3.5801 3.4395a2.25 2.25 0 0 1 0 3.2891l-0.16016 0.15039 1.6387 1.5703 0.25-0.2207a4.27 4.27 0 0 0 0 -6.2598l-3.6387-3.5195zm-13.4 3.3398l-0.18945 0.17969a4.31 4.31 0 0 0 -0.060547 6.3203l3.6309 3.5 1.6895-1.5703-3.5703-3.4102a2.27 2.27 0 0 1 0 -3.3301l0.10938-0.099609-1.6094-1.5898zm13.5 6.6602l-3.4004 3.5605a2.24 2.24 0 0 1 -3.2988 0l-0.16016-0.17969-1.5703 1.6191 0.24023 0.26953a4.27 4.27 0 0 0 6.2695 0l3.4902-3.5996-1.5703-1.6699z" fill="currentColor"></path></symbol><symbol id="search" viewBox="0 0 20 24"><g fill="none" stroke="currentColor" stroke-linecap="square" stroke-miterlimit="10" stroke-width="2"><circle cx="8" cy="10" r="6"></circle><path d="M13 15l5 5"></path></g></symbol><symbol id="share" viewBox="0 0 22 24"><g fill="none" stroke="currentColor" stroke-miterlimit="10" stroke-width="2"><path d="M18 7.9a3 3 0 1 1 3-3 3 3 0 0 1-3 3m0 14a3 3 0 1 1 3-3 3 3 0 0 1-3 3"></path><circle cx="4" cy="11.9" r="3"></circle><path d="M6.65 10.5l8.64-4.32m0 11.44L6.65 13.3"></path></g></symbol><symbol id="size-guide" viewBox="0 0 19 19"><g fill="none" stroke="currentColor" stroke-miterlimit="10"><path d="M.5 6.5h18v6H.5z"></path><path stroke-linecap="square" d="M3.5 12.5v-3m3 3v-2m3 2v-3m6 3v-3m-3 3v-2"></path></g></symbol><symbol id="tooltip" viewBox="0 0 14 24"><path fill="currentColor" d="M.49 7.22A6.14 6.14 0 0 1 7 1.76a5.88 5.88 0 0 1 6.25 6c0 3.62-2.6 5.61-5.58 6.07V17H5.1v-5.13c3 0 5.67-.91 5.67-4.06A3.58 3.58 0 0 0 6.94 4.1 3.68 3.68 0 0 0 3 7.22zM5.1 22v-2.68h2.54V22z"></path></symbol><symbol id="twitter" viewBox="0 0 24 24"><g id="Icons/Social/Twitter" stroke="none" stroke-width="1" fill="none" fill-rule="evenodd"><g id="Twitter"><polygon id="Fill-1" points="0 24 24 24 24 0 0 0"></polygon><path d="M23,12 C23,18.075135 18.075135,23 12,23 C5.924865,23 1,18.075135 1,12 C1,5.924865 5.924865,1 12,1 C18.075135,1 23,5.924865 23,12" id="Fill-1" fill="#1DA1F2"></path><path d="M10.088417,18 C14.9942851,18 17.6770979,13.7683757 17.6770979,10.0990596 C17.6770979,9.97879949 17.6747191,9.85911533 17.6694638,9.74006472 C18.190183,9.34812499 18.6428596,8.85907868 19,8.30224205 C18.5220979,8.52323731 18.0078511,8.67223776 17.4683234,8.73939451 C18.0189702,8.39566251 18.4417191,7.85166976 18.6411447,7.20325574 C18.1256809,7.52135759 17.5551191,7.75272009 16.9476043,7.87729991 C16.4609064,7.33756925 15.7677574,7 15.0007021,7 C13.5276638,7 12.3332128,8.24360948 12.3332128,9.77669567 C12.3332128,9.99463835 12.3566128,10.2065335 12.402417,10.4098468 C10.1857787,10.2938488 8.2201234,9.18875729 6.90485532,7.50857131 C6.67555745,7.91882651 6.54362128,8.39566251 6.54362128,8.90423382 C6.54362128,9.86769711 7.01449787,10.7181574 7.73049362,11.2156703 C7.29302979,11.2016745 6.88195319,11.0765187 6.52248936,10.8683097 C6.52188085,10.8798865 6.52188085,10.8915784 6.52188085,10.9037312 C6.52188085,12.2487669 7.44139574,13.3715403 8.66168085,13.6261716 C8.43769362,13.6895846 8.2019234,13.7238541 7.95862979,13.7238541 C7.78680851,13.7238541 7.61968936,13.7061146 7.45721702,13.6737457 C7.79676596,14.7769941 8.78133617,15.5798226 9.94884681,15.6024578 C9.03585957,16.3473448 7.88588511,16.7911784 6.63628085,16.7911784 C6.42103404,16.7911784 6.20877447,16.7783345 6,16.7527044 C7.18045532,17.5403276 8.58196596,18 10.088417,18" id="Fill-3" fill="#FFFFFF"></path></g></g></symbol><symbol id="usp-checkmark" viewBox="0 0 17 19"><path fill="none" stroke="currentColor" stroke-linecap="square" stroke-miterlimit="10" d="M1.5 10.5l4 4 10-10"></path></symbol><symbol id="usp-delivery" viewBox="0 0 19 19"><g fill="none" stroke="currentColor" stroke-miterlimit="10"><path d="M13.42 13.5H9.5"></path><path stroke-linecap="square" d="M4.5 5.5h10l4 3v5h-2M6.5 13.5h-2m0-6h-4"></path><circle cx="8" cy="13" r="1.5"></circle><circle cx="15" cy="13" r="1.5"></circle><path stroke-linecap="square" d="M1.5 9.5h3m-2 2h2"></path></g></symbol><symbol id="usp-free-returns" viewBox="0 0 19 19"><g fill="none" stroke="currentColor" stroke-miterlimit="10"><path stroke-linecap="square" d="M16.5 11.5h-2m3-2h-3M14.5 5.5H.5v8h14"></path><path d="M.5 7.5h11m-8 0l4 6m-2-6l4 6m-2-6l4 6"></path><path stroke-linecap="square" d="M14.5 7.5h4"></path></g></symbol><symbol id="vk" viewBox="0 0 24 24"><g id="Icons/Social/VK" stroke="none" stroke-width="1" fill="none" fill-rule="evenodd"><g id="VK" transform="translate(1.000000, 1.000000)"><path d="M7.62314749,0 L14.3768525,0 C20.5405787,0 22,1.45942131 22,7.62314749 L22,14.3768525 C22,20.5405787 20.5405787,22 14.3768525,22 L7.62314749,22 C1.45942131,22 0,20.5405787 0,14.3768525 L0,7.62314749 C0,1.45942131 1.45942131,0 7.62314749,0" id="Fill-1" fill="#4680C2"></path><path d="M18.6470354,7.62455516 C18.7580796,7.27224199 18.6470354,7.01601423 18.1544057,7.01601423 L16.5182905,7.01601423 C16.1052505,7.01601423 15.9146166,7.24021352 15.8034135,7.48042705 C15.8034135,7.48042705 14.9614473,9.53024911 13.7857129,10.8594306 C13.4046041,11.2437722 13.2296975,11.371726 13.0233363,11.371726 C12.9119744,11.371726 12.7691578,11.2437722 12.7691578,10.8914591 L12.7691578,7.60854093 C12.7691578,7.19217082 12.6419097,7 12.2925732,7 L9.71901598,7 C9.46483749,7 9.30597594,7.19217082 9.30597594,7.38434164 C9.30597594,7.78469751 9.89360483,7.88078292 9.95730831,9.00177936 L9.95730831,11.4359431 C9.95730831,11.9644128 9.86199138,12.0604982 9.6553125,12.0604982 C9.09929706,12.0604982 7.74897384,9.99466192 6.93893877,7.6405694 C6.78007721,7.17615658 6.62121566,7 6.20817562,7 L4.55601544,7 C4.07943078,7 4,7.22419929 4,7.46441281 C4,7.89679715 4.55601544,10.0747331 6.58944335,12.9572954 C7.93976656,14.9270463 9.86199138,15.9839858 11.5935823,15.9839858 C12.6419097,15.9839858 12.7691578,15.7437722 12.7691578,15.3434164 L12.7691578,13.8539324 C12.7691578,13.3735053 12.8644748,13.2934342 13.1979252,13.2934342 C13.4362175,13.2934342 13.8651437,13.4217082 14.8343581,14.366548 C15.9463889,15.4875445 16.1368639,16 16.7565829,16 L18.392698,16 C18.8692827,16 19.0918477,15.7597865 18.9647585,15.2952135 C18.8217831,14.8309609 18.2814949,14.158363 17.582663,13.3576512 C17.2012364,12.9092527 16.6294936,12.4126512 16.4545871,12.1724377 C16.2162947,11.852153 16.2799982,11.7241993 16.4545871,11.4359431 C16.4388598,11.4359431 18.4403565,8.58540925 18.6470354,7.62455516" id="Fill-4" fill="#FFFFFF"></path></g></g></symbol><symbol id="whatsapp" viewBox="0 0 24 24"><path d="M1.05 23l1.55-5.65a10.9 10.9 0 1 1 9.45 5.46 10.88 10.88 0 0 1-5.21-1.33z"></path><path d="M12.05 21a9.08 9.08 0 1 0-7.68-4.25l.22.35-.92 3.34 3.43-.9.33.2A9.1 9.1 0 0 0 12 21z" fill="#fff"></path><path d="M17.54 14.5c-.07-.11-.25-.18-.52-.32s-1.62-.79-1.87-.88-.43-.14-.61.13a13.32 13.32 0 0 1-.86 1.07c-.16.18-.32.21-.59.07a7.48 7.48 0 0 1-2.19-1.35 8.3 8.3 0 0 1-1.52-1.89c-.16-.27 0-.42.12-.55s.28-.32.41-.48a1.64 1.64 0 0 0 .27-.46.48.48 0 0 0 0-.47c-.07-.14-.61-1.48-.84-2s-.44-.46-.61-.46h-.54a1 1 0 0 0-.73.34 3 3 0 0 0-1 2.27 5.28 5.28 0 0 0 1.16 2.78 12.11 12.11 0 0 0 4.65 4.11 14.78 14.78 0 0 0 1.55.57 3.73 3.73 0 0 0 1.72.11 2.84 2.84 0 0 0 1.84-1.29 2.25 2.25 0 0 0 .16-1.3z"></path></symbol><symbol id="wishlist-active" viewBox="0 0 20 24"><path fill="currentColor" stroke="currentColor" stroke-miterlimit="10" stroke-width="2" d="M7.38 6H4.42L2 10l8 8 8-8-2.41-4h-2.98L10 9 7.38 6z"></path></symbol><symbol id="wishlist-inactive" viewBox="0 0 20 24"><path fill="none" stroke="currentColor" stroke-miterlimit="10" stroke-width="2" d="M7.38 6H4.42L2 10l8 8 8-8-2.41-4h-2.98L10 9 7.38 6z"></path></symbol><symbol id="yahoo" viewBox="0 0 24 24"><g id="Icons/Social/Yahoo" stroke="none" stroke-width="1" fill="none" fill-rule="evenodd"><g id="Yahoo" transform="translate(12.000000, 12.000000) scale(-1, 1) translate(-12.000000, -12.000000) translate(1.000000, 1.000000)" fill="#400090"><path d="M17.1205688,3.37420635 L16.9881614,3.58373016 C16.8637566,3.78088624 16.7524471,3.94966931 16.5967593,4.18392857 C16.3886905,4.49457672 16.0016534,5.10787037 15.5375,5.89722222 C15.4094577,6.11474868 15.2515946,6.38029101 15.0849868,6.66111111 C14.7721561,7.18783069 14.4171296,7.78511905 14.1414021,8.2609127 C14.0257348,8.46243386 13.9078704,8.66759259 13.789293,8.87420635 C13.4815476,9.40965608 13.1636316,9.96402116 12.8587963,10.4987434 C12.5430556,11.0531085 12.2338624,11.5965608 11.9253968,12.1414755 L11.9253968,12.6871104 C11.9253968,13.4444444 11.9414094,14.2672619 11.9697751,15.0049603 C11.9835979,15.3403512 11.9966931,15.9376323 12.0112434,16.5698485 C12.028711,17.3228247 12.046164,18.1012639 12.0650866,18.4948413 L12.0708995,18.6134259 L12.071627,18.6279762 L11.9443122,18.5916005 C11.894121,18.5770503 11.8431951,18.5646898 11.7922692,18.5523221 C11.6358538,18.519584 11.4685258,18.492666 11.3048353,18.4773882 C11.2044312,18.4693783 11.1033069,18.4650205 11,18.4650205 L10.9970899,18.4650205 C10.8937831,18.4650205 10.7926587,18.4693856 10.6922619,18.4773882 C10.5285714,18.492666 10.3612434,18.519584 10.204828,18.5523221 C10.1531746,18.5639623 10.1029762,18.5770503 10.0527778,18.5916005 L9.92546296,18.6279762 L9.92619048,18.6134259 L9.93201058,18.4948413 C9.95092593,18.1019841 9.96911376,17.323545 9.98584656,16.5698485 C10.0003968,15.9376323 10.0142196,15.3403512 10.0273148,15.0049603 C10.0556878,14.2679894 10.0716931,13.4451792 10.0716931,12.6871104 L10.0716931,12.1414755 C9.76322751,11.5965608 9.45403439,11.0531157 9.13829365,10.4987434 C8.83419312,9.96329365 8.51554233,9.40966336 8.20780423,8.87420635 C8.08921958,8.66759987 7.97136243,8.46243386 7.85568783,8.2609127 C7.58068783,7.78511905 7.22566138,7.18783069 6.91210317,6.66111111 C6.74550265,6.38029101 6.58763228,6.11474868 6.45958995,5.89722222 C5.99543651,5.10787037 5.60839947,4.49457672 5.40033069,4.18392857 C5.24464286,3.94966931 5.13333333,3.78161376 5.00892857,3.58373016 L4.87652116,3.37420635 L4.87579365,3.37275132 L5.11587302,3.44113757 C5.4228836,3.52916667 5.73571429,3.57208995 6.07109788,3.57208995 C6.40575397,3.57208995 6.72804233,3.52916667 7.02777778,3.44404762 L7.1005291,3.42367725 L7.13690476,3.48988095 C7.73055556,4.56150794 9.32526455,7.18201058 10.2775794,8.74762632 C10.6064153,9.28743386 10.8661376,9.71521892 10.9956349,9.93201058 C10.9963624,9.93128307 10.9963624,9.93055556 10.9970899,9.92983532 C10.9978175,9.93055556 10.9978175,9.93128307 10.998545,9.93201058 C11.1280423,9.71521892 11.3884921,9.28743386 11.7166005,8.74762632 C12.6689153,7.18201058 14.2636243,4.56150794 14.8572679,3.48988095 L14.8936435,3.42367725 L14.9663948,3.44404762 C15.2661376,3.52916667 15.5884187,3.57208995 15.9230747,3.57208995 C16.2591931,3.57208995 16.5712963,3.52916667 16.8783069,3.44113757 L17.1183862,3.37275132 L17.1205688,3.37420635 Z M11.0276455,1.49649471 C7.14054233,1.49649471 3.46587302,0.98505291 0,0 L0,22 C3.46587302,21.0149471 7.14054233,20.5035053 11.0276455,20.5035053 C14.8703704,20.5035053 18.5333995,21.0033069 22,22 L22,0 C18.5333995,0.996693122 14.8696501,1.49649471 11.0276455,1.49649471 L11.0276455,1.49649471 Z" id="Fill-1"></path></g></g></symbol><symbol id="youtube" viewBox="0 0 24 24"><path d="M23.5 6.19a3 3 0 0 0-2.12-2.14c-1.88-.5-9.38-.5-9.38-.5s-7.51 0-9.38.5A3 3 0 0 0 .5 6.19 31.67 31.67 0 0 0 0 12a31.67 31.67 0 0 0 .5 5.81A3 3 0 0 0 2.62 20c1.87.5 9.38.5 9.38.5s7.5 0 9.38-.5a3 3 0 0 0 2.12-2.14A31.67 31.67 0 0 0 24 12a31.67 31.67 0 0 0-.5-5.81z"></path><path fill="#fff" d="M9.54 15.57L15.82 12 9.54 8.43v7.14z"></path></symbol><symbol id="zoom-out" viewBox="0 0 22 24"><g stroke="none" stroke-width="1" fill="none" fill-rule="evenodd"><g id="Group-11"><polygon points="0 24 24 24 24 0 0 0"></polygon><g transform="translate(3.000000, 3.000000)" stroke="currentColor" stroke-width="2"><path d="M7,14 C3.134,14 0,10.865 0,7 C0,3.135 3.134,0 7,0 C10.866,0 14,3.135 14,7 C14,10.865 10.866,14 7,14 Z" stroke-linecap="square"></path><path d="M12,12 L18,18" stroke-linecap="square"></path><path d="M11,7 L3,7"></path></g></g></g></symbol><symbol id="zoom" viewBox="0 0 22 24"><g fill="none" stroke="currentColor" stroke-miterlimit="10" stroke-width="2"><circle cx="9" cy="10" r="7" stroke-linecap="square"></circle><path stroke-linecap="square" d="M14 15l6 6"></path><path d="M9 6v8m4-4H5"></path></g></symbol></svg>